<?xml version="1.0" standalone="no"?>
<!DOCTYPE svg PUBLIC "-//W3C//DTD SVG 20010904//EN"
 "http://www.w3.org/TR/2001/REC-SVG-20010904/DTD/svg10.dtd">
<svg version="1.0" xmlns="http://www.w3.org/2000/svg"
 width="600.000000pt" height="600.000000pt" viewBox="0 0 600.000000 600.000000"
 preserveAspectRatio="xMidYMid meet">
<metadata>
Created by potrace 1.14, written by Peter Selinger 2001-2017
</metadata>
<g transform="translate(0.000000,600.000000) scale(0.100000,-0.100000)"
fill="#000000" stroke="none">
<path d="M2401 4643 c-36 -3 -66 -12 -90 -29 -19 -13 -46 -24 -59 -24 -13 0
-42 -16 -65 -35 -22 -19 -45 -35 -51 -35 -5 0 -19 -8 -30 -19 -12 -10 -50 -29
-86 -41 -36 -13 -70 -29 -75 -35 -6 -7 -21 -15 -35 -20 -14 -4 -34 -13 -45
-19 -11 -7 -32 -16 -46 -19 -15 -4 -29 -15 -31 -25 -3 -11 -22 -23 -47 -30
-39 -12 -46 -20 -42 -50 3 -22 -45 -85 -89 -118 -22 -16 -54 -50 -71 -76 -16
-25 -45 -58 -64 -73 -19 -14 -49 -47 -67 -73 -17 -26 -38 -51 -45 -55 -7 -4
-13 -18 -13 -30 0 -13 -28 -51 -71 -95 -52 -55 -68 -78 -64 -93 4 -10 2 -19
-4 -19 -6 0 -18 -11 -27 -25 -16 -24 -15 -27 0 -44 17 -18 17 -21 0 -47 -15
-23 -19 -49 -19 -153 0 -69 -7 -161 -14 -203 -12 -61 -12 -82 -3 -100 9 -17
10 -72 4 -218 -7 -152 -6 -200 4 -216 10 -17 9 -33 -4 -86 -17 -71 -12 -97 17
-105 10 -3 21 -15 23 -26 7 -44 2 -643 -6 -659 -5 -11 -1 -23 15 -39 21 -21
22 -27 16 -156 -4 -102 -9 -139 -21 -152 -9 -9 -23 -54 -31 -99 -9 -45 -27
-116 -40 -157 -28 -85 -23 -115 20 -115 35 0 31 -10 -21 -48 -54 -40 -57 -71
-9 -87 43 -14 46 -22 39 -97 -5 -59 -4 -69 11 -75 10 -3 26 -1 36 6 15 9 26 8
49 -4 16 -8 35 -15 42 -15 13 0 58 -88 58 -114 0 -28 50 -76 79 -76 39 0 108
56 139 114 l27 50 3 -45 c2 -36 10 -50 39 -77 33 -31 36 -32 59 -17 31 20 43
19 70 -6 18 -17 26 -19 44 -9 15 8 25 8 34 1 20 -16 54 -92 70 -155 16 -62 30
-79 56 -71 16 5 44 -35 103 -145 16 -30 47 -79 68 -107 l40 -53 200 0 201 0
-6 23 c-6 25 -145 283 -179 332 -11 17 -45 61 -75 98 -50 63 -53 70 -38 86 9
10 16 29 16 44 0 35 15 42 28 12 7 -14 18 -25 26 -25 7 0 16 -12 20 -27 10
-45 32 -66 71 -67 21 -1 40 -9 48 -20 8 -11 22 -17 38 -14 20 2 26 11 34 50 9
40 12 45 28 37 9 -6 21 -8 26 -5 5 3 16 -5 25 -19 22 -33 52 -32 86 5 l28 30
7 -28 c19 -78 75 -68 105 20 l13 36 20 -25 c15 -18 27 -24 45 -20 18 3 31 -1
42 -16 20 -24 49 -17 57 14 4 14 11 18 22 13 38 -16 63 -16 81 1 11 10 20 24
20 32 0 7 6 16 14 19 25 10 27 34 6 82 -10 26 -24 66 -30 88 -5 23 -17 44 -25
47 -19 8 -29 69 -17 104 l10 28 12 -30 c7 -16 14 -48 17 -70 8 -56 28 -92 62
-110 16 -8 45 -36 65 -63 40 -55 164 -176 246 -241 46 -36 59 -42 87 -38 18 3
33 2 33 -3 0 -5 8 -11 19 -15 10 -3 31 -16 47 -30 15 -13 54 -39 86 -57 160
-91 319 -189 420 -259 26 -18 52 -19 470 -19 l443 1 -37 19 c-20 11 -40 24
-43 30 -3 5 -17 10 -30 10 -13 0 -39 9 -57 19 -18 11 -80 32 -138 46 -64 17
-126 41 -160 61 -30 19 -126 65 -213 103 -86 38 -174 78 -195 90 -20 11 -81
42 -134 68 -54 26 -98 51 -98 55 0 4 30 8 66 8 36 0 93 7 127 15 364 89 637
146 752 156 190 16 320 31 393 45 41 8 92 14 115 14 23 0 74 7 112 16 53 11
387 73 403 74 1 0 2 42 2 93 l0 94 -102 -14 c-57 -8 -184 -29 -283 -47 -130
-24 -189 -31 -215 -25 -52 12 -184 11 -197 -2 -7 -7 -26 -8 -55 -3 l-43 8 62
6 c89 10 109 26 118 96 13 107 51 134 200 145 55 4 127 12 159 17 33 6 118 16
190 22 72 6 139 13 149 16 15 5 17 19 17 102 l0 97 -53 2 c-28 1 -173 -15
-322 -36 l-270 -39 -26 24 c-20 19 -25 32 -23 66 4 91 -54 140 -171 142 -90 1
-117 -14 -140 -79 -10 -30 -22 -55 -26 -55 -15 0 -70 -63 -83 -95 l-14 -32
-146 -2 c-152 -1 -274 -14 -306 -31 -10 -6 -43 -10 -73 -10 -46 0 -55 3 -60
20 -11 41 -38 36 -89 -18 -27 -29 -52 -52 -56 -52 -3 0 -36 -20 -73 -45 -37
-25 -71 -45 -76 -45 -4 0 -48 -29 -98 -65 -49 -35 -151 -96 -226 -134 l-136
-71 -56 60 c-37 41 -63 60 -79 60 -53 0 -228 218 -228 284 0 27 6 34 45 55 25
13 45 27 45 31 0 5 16 3 36 -3 33 -10 38 -9 54 11 22 26 37 28 61 6 19 -17 39
-11 39 12 0 21 28 17 40 -6 16 -30 46 -25 59 10 11 32 9 32 69 1 27 -14 42 -7
42 18 0 18 35 61 50 61 5 0 12 -9 15 -21 10 -31 47 -21 64 18 8 18 20 33 27
33 7 0 17 7 22 16 8 14 13 13 45 -6 49 -29 67 -16 67 51 0 53 1 55 29 37 26
-16 55 -3 48 22 -6 23 16 45 38 36 9 -3 21 4 31 19 20 30 45 32 62 5 17 -28
39 -25 44 5 3 16 1 24 -6 23 -13 -3 -16 4 -16 32 0 16 7 20 30 20 34 0 50 22
50 69 0 21 6 32 20 36 11 3 20 13 20 21 0 8 4 13 9 10 18 -11 41 6 41 30 0 13
4 24 9 24 11 0 -3 56 -19 75 -7 9 -3 26 17 61 14 27 27 50 28 52 4 5 308 32
313 27 3 -3 11 0 17 5 7 6 53 15 101 21 49 6 106 14 127 19 30 6 45 4 76 -13
53 -29 83 -15 105 49 29 87 18 124 -37 124 -17 0 -35 7 -42 16 -10 15 -19 15
-71 5 -32 -7 -113 -21 -179 -31 -332 -53 -375 -58 -375 -42 1 4 14 25 30 47
37 50 67 114 82 174 6 25 19 63 29 83 22 44 24 67 6 74 -8 3 -13 29 -14 79 0
42 -5 81 -10 88 -17 21 -35 184 -23 206 15 29 12 63 -7 91 -12 17 -13 25 -5
28 7 2 9 8 6 14 -4 6 -10 5 -15 -3 -10 -17 -12 -11 -34 111 -10 52 -28 128
-41 168 -13 40 -24 83 -24 95 0 13 -8 48 -17 78 -9 30 -15 62 -14 72 1 9 -7
31 -19 47 -12 16 -24 46 -27 66 -3 20 -12 38 -19 41 -8 3 -14 11 -14 19 0 8
-14 26 -30 41 -17 15 -40 43 -52 63 -29 48 -59 80 -75 80 -17 0 -92 58 -171
131 -35 32 -69 59 -75 59 -18 0 -152 70 -227 119 -35 23 -70 39 -78 36 -8 -3
-28 9 -46 28 -31 33 -36 34 -146 46 -63 7 -130 19 -149 27 -18 8 -49 14 -67
14 -20 0 -68 17 -114 40 -90 45 -146 51 -255 26 -33 -7 -102 -19 -154 -26 -80
-11 -96 -11 -99 0 -9 27 -51 60 -74 58 -13 -1 -47 -3 -77 -5z m199 -83 c0 -5
-10 -10 -22 -10 -19 0 -20 2 -8 10 19 13 30 13 30 0z m377 -146 c-3 -3 -12 -4
-19 -1 -8 3 -5 6 6 6 11 1 17 -2 13 -5z m480 -290 c-3 -3 -12 -4 -19 -1 -8 3
-5 6 6 6 11 1 17 -2 13 -5z m-107 -169 c0 -8 -82 -47 -87 -41 -3 3 14 15 38
26 49 22 49 22 49 15z m250 -20 c0 -8 10 -17 23 -19 57 -12 287 -46 313 -46
15 0 62 -15 104 -34 41 -19 83 -37 92 -40 27 -8 49 -51 64 -120 7 -35 36 -126
65 -202 58 -156 79 -232 72 -251 -3 -7 3 -55 12 -107 13 -72 14 -99 6 -115 -9
-17 -8 -42 5 -112 14 -76 14 -100 4 -152 -12 -65 -41 -107 -72 -107 -10 0 -40
-11 -66 -25 -51 -27 -72 -31 -89 -14 -8 8 -42 8 -119 1 -88 -8 -116 -7 -151 5
-24 9 -58 13 -76 10 -20 -3 -38 1 -49 10 -13 12 -20 12 -36 2 -18 -11 -24 -10
-41 5 -14 13 -28 16 -45 12 -14 -3 -34 -2 -43 2 -10 5 -58 19 -106 31 -77 19
-198 65 -307 119 -19 9 -43 27 -53 39 -10 12 -26 24 -36 28 -16 5 -19 22 -24
145 -9 193 17 311 114 519 41 88 62 118 122 180 91 92 246 214 264 207 8 -4
11 -1 8 5 -4 6 1 17 11 24 25 19 34 18 34 0z m-421 -29 c-11 -11 -79 -34 -73
-25 3 6 16 14 28 19 22 9 53 13 45 6z m231 -9 c0 -2 -12 -14 -27 -28 l-28 -24
24 28 c23 25 31 32 31 24z m-212 -104 c-51 -112 -134 -250 -145 -240 -5 6 23
118 44 169 10 26 27 45 52 58 39 20 55 25 49 13z m-243 -291 c-38 -111 -40
-116 -25 -107 6 3 10 2 10 -4 0 -18 -16 -20 -27 -2 -8 13 -4 36 17 98 30 87
49 127 56 120 2 -2 -11 -50 -31 -105z m584 -1042 c24 -6 56 -17 70 -24 40 -21
94 -36 128 -36 17 0 59 -9 93 -20 34 -11 77 -20 94 -20 18 0 41 -6 51 -14 18
-13 54 -10 65 4 9 13 119 19 123 7 2 -7 15 -6 43 5 22 8 50 12 64 8 24 -6 24
-7 5 -17 -11 -6 -45 -16 -75 -23 -30 -7 -70 -19 -89 -27 -19 -7 -88 -18 -153
-23 -147 -12 -236 5 -270 51 -11 15 -41 35 -67 44 -25 9 -55 21 -65 27 -39 21
-128 28 -134 10 -2 -6 -14 -27 -28 -47 -32 -48 -30 -68 12 -115 40 -44 94 -72
229 -120 76 -27 108 -32 203 -35 62 -2 117 -7 122 -10 5 -3 32 -3 60 1 l50 7
-16 -32 c-9 -18 -23 -31 -34 -31 -10 0 -34 -9 -52 -19 -26 -16 -49 -19 -113
-17 -44 1 -85 5 -91 9 -11 6 -44 8 -202 8 -46 0 -95 4 -109 10 -17 6 -30 6
-39 -2 -18 -15 -70 39 -79 83 -4 18 -13 38 -20 45 -9 8 -11 27 -8 54 5 34 2
45 -14 58 -18 14 -20 25 -16 82 7 86 23 107 99 124 63 15 92 14 163 -5z m-829
-211 c0 -5 -4 -9 -10 -9 -5 0 -10 7 -10 16 0 8 5 12 10 9 6 -3 10 -10 10 -16z
m-151 -369 c1 -13 0 -13 -9 0 -5 8 -9 26 -9 40 l1 25 8 -25 c4 -14 8 -32 9
-40z m2626 -340 c40 -9 74 -42 75 -71 0 -19 -23 -31 -36 -20 -14 12 -98 31
-139 31 -32 0 -36 3 -33 22 3 24 40 48 73 48 11 0 38 -5 60 -10z m-47 -127
c-27 -26 -28 -26 -48 -8 -30 27 -25 35 27 35 l48 0 -27 -27z m-100 -22 c3 -8
-1 -12 -9 -9 -7 2 -15 10 -17 17 -3 8 1 12 9 9 7 -2 15 -10 17 -17z m157 10
c4 5 11 6 17 3 6 -4 6 -10 0 -16 -7 -7 -6 -15 4 -26 8 -8 18 -12 21 -9 3 3 12
-1 20 -9 12 -11 12 -18 3 -28 -8 -11 -6 -19 11 -35 20 -18 20 -21 6 -27 -28
-10 -45 2 -40 29 3 17 -2 31 -19 47 -38 36 -75 60 -82 53 -3 -3 -6 -2 -6 4 0
18 12 22 36 13 14 -6 26 -6 29 1z m-1955 -21 c-20 -13 -33 -13 -25 0 3 6 14
10 23 10 15 0 15 -2 2 -10z m1888 -22 c-6 -18 -28 -21 -28 -4 0 9 7 16 16 16
9 0 14 -5 12 -12z m-133 -8 c10 -16 -14 -50 -30 -44 -18 7 -20 40 -2 47 19 8
25 8 32 -3z m175 -10 c0 -5 -5 -10 -11 -10 -5 0 -7 5 -4 10 3 6 8 10 11 10 2
0 4 -4 4 -10z m190 -20 c0 -4 -7 -10 -15 -14 -11 -4 -15 2 -15 21 0 21 2 24
15 13 8 -7 15 -16 15 -20z m-220 -10 c0 -5 -11 -10 -25 -10 -14 0 -25 5 -25
10 0 6 11 10 25 10 14 0 25 -4 25 -10z m80 -40 c0 -13 -7 -20 -20 -20 -13 0
-20 7 -20 20 0 13 7 20 20 20 13 0 20 -7 20 -20z m-250 0 c0 -5 -11 -10 -25
-10 -14 0 -25 5 -25 10 0 6 11 10 25 10 14 0 25 -4 25 -10z m55 0 c3 -5 -1
-10 -9 -10 -9 0 -16 5 -16 10 0 6 4 10 9 10 6 0 13 -4 16 -10z m147 -27 c21
-20 38 -43 38 -50 0 -17 -27 -17 -33 0 -4 9 -8 8 -17 -3 -10 -13 -11 -13 -7 1
3 10 -6 28 -23 44 -28 27 -31 45 -7 45 6 0 28 -17 49 -37z m205 21 c4 -10 -1
-22 -12 -30 -23 -17 -35 -9 -35 22 0 17 5 24 20 24 11 0 23 -7 27 -16z m-337
-34 c0 -5 -2 -10 -4 -10 -3 0 -8 5 -11 10 -3 6 -1 10 4 10 6 0 11 -4 11 -10z
m-45 -37 c2 -12 -3 -24 -10 -27 -17 -6 -29 10 -19 26 4 7 3 8 -4 4 -7 -4 -12
-1 -12 8 0 16 21 27 33 17 4 -4 9 -17 12 -28z m264 3 c14 -17 -2 -31 -21 -20
-9 5 -9 3 1 -9 11 -14 11 -18 -4 -23 -28 -11 -39 11 -20 40 20 30 28 32 44 12z
m94 -22 c-8 -20 -33 -17 -33 4 0 10 3 22 7 25 10 11 32 -13 26 -29z m-246 4
c-3 -8 -6 -5 -6 6 -1 11 2 17 5 13 3 -3 4 -12 1 -19z m-67 -49 c-7 -11 -14
-18 -17 -15 -8 8 5 36 17 36 7 0 7 -6 0 -21z m-135 -78 c0 -61 4 -86 13 -89 7
-2 50 -10 95 -16 l82 -12 -90 -17 c-64 -12 -143 -17 -278 -17 -174 0 -191 -2
-214 -20 -19 -15 -41 -20 -87 -20 -33 0 -97 -9 -141 -19 -44 -10 -100 -22
-125 -25 -42 -6 -137 -21 -205 -32 -26 -4 -28 -3 -15 9 8 8 92 59 185 114 315
185 302 180 478 192 81 6 113 12 125 25 14 13 33 16 97 14 l80 -3 0 -84z m236
80 c-7 -5 -10 -14 -7 -20 8 -12 1 -13 -31 -5 -38 10 -28 34 15 34 25 0 33 -3
23 -9z m53 -7 c4 -10 1 -14 -6 -12 -15 5 -23 28 -10 28 5 0 13 -7 16 -16z
m-194 -45 c37 -19 52 -21 141 -16 l99 5 0 -24 c0 -35 -28 -44 -142 -44 -126 0
-152 10 -156 63 -4 43 3 45 58 16z m-2230 -269 c0 -5 -2 -10 -4 -10 -3 0 -8 5
-11 10 -3 6 -1 10 4 10 6 0 11 -4 11 -10z m-577 -142 c6 -22 5 -22 -8 -4 -17
22 -20 40 -6 32 5 -3 11 -16 14 -28z m494 -60 c-3 -8 -6 -5 -6 6 -1 11 2 17 5
13 3 -3 4 -12 1 -19z"/>
<path d="M3660 3167 c-86 -43 -94 -122 -22 -199 39 -42 86 -34 171 30 32 24
33 27 27 73 -9 68 -13 76 -51 99 -42 26 -69 25 -125 -3z"/>
<path d="M3986 3155 c-12 -13 -29 -47 -39 -76 -16 -51 -16 -54 1 -74 10 -11
26 -32 35 -47 31 -50 91 -32 142 42 24 34 26 46 21 84 -10 62 -31 83 -90 89
-42 4 -52 2 -70 -18z"/>
<path d="M5066 4141 c-3 -5 -30 -21 -60 -35 -55 -27 -116 -90 -116 -119 0 -28
20 -29 51 -2 18 14 33 24 36 22 2 -3 -10 -27 -26 -55 -47 -75 -37 -111 25 -96
19 5 24 2 24 -14 0 -12 -7 -180 -15 -374 -18 -425 -16 -604 8 -638 9 -14 17
-40 17 -60 0 -48 26 -144 40 -148 6 -2 22 -15 35 -29 51 -56 75 9 50 138 -29
158 -17 857 21 1180 17 142 12 179 -21 179 -8 0 -15 8 -15 18 0 32 -40 56 -54
33z"/>
<path d="M0 2170 c0 -5 5 -10 10 -10 6 0 10 5 10 10 0 6 -4 10 -10 10 -5 0
-10 -4 -10 -10z"/>
<path d="M5710 145 c0 -30 -16 -65 -30 -65 -6 0 -10 7 -10 15 0 18 -14 19 -41
5 -29 -16 -23 -30 14 -31 30 0 31 -1 10 -11 -27 -13 -31 -33 -5 -23 9 3 31 9
47 12 17 3 36 10 43 16 8 6 12 6 12 -1 0 -11 39 -37 45 -30 2 2 -7 16 -20 32
-21 26 -25 28 -41 15 -16 -13 -17 -11 -10 33 4 29 3 49 -4 53 -6 4 -10 -4 -10
-20z"/>
<path d="M5488 131 c4 -29 3 -30 -57 -42 -54 -10 -62 -15 -59 -32 2 -11 9 -22
17 -25 9 -3 11 2 6 17 -5 18 -2 21 19 21 13 0 36 4 51 10 22 8 27 7 35 -14 14
-37 31 -42 24 -7 -6 27 -4 29 15 24 12 -3 21 -1 21 6 0 6 -11 11 -24 11 -18 0
-25 7 -29 30 -8 39 -25 39 -19 1z"/>
<path d="M5827 140 c-3 -13 0 -20 9 -20 8 0 14 9 14 20 0 11 -4 20 -9 20 -5 0
-11 -9 -14 -20z"/>
<path d="M5198 83 c-25 -6 -23 -23 3 -23 30 0 15 -16 -22 -24 -18 -3 -29 -9
-26 -12 4 -4 32 -2 64 5 32 6 77 12 99 13 36 1 41 4 36 21 -5 19 -23 20 -79 2
-17 -6 -23 -3 -23 9 0 16 -16 19 -52 9z"/>
<path d="M5563 74 c-21 -22 -15 -34 17 -34 20 0 30 5 30 15 0 22 -32 36 -47
19z"/>
<path d="M5820 76 c0 -8 -3 -21 -6 -30 -4 -11 -1 -16 10 -16 11 0 16 9 16 30
0 17 -4 30 -10 30 -5 0 -10 -6 -10 -14z"/>
</g>
</svg>
