<svg id="Layer_1" data-name="Layer 1" xmlns="http://www.w3.org/2000/svg" viewBox="0 0 300.02898 300"><defs><style>.cls-1{fill:#fff;}</style></defs><path class="cls-1" d="M150.20954.0006C67.85016-.23187.24043,66.83676-.01375,149.02165-.271,232.20609,66.59856,299.7514,149.4535,299.99931c82.82883.24787,150.35126-66.78091,150.5605-149.45978A149.96956,149.96956,0,0,0,150.20954.0006ZM85.52768,190.88454c.07561-2.14456.01484-4.29389.01484-6.44109l.19388-.00112q1.49384-32.36387,2.96688-64.72875c.1084-2.43617.88833-3.556,3.136-1.85383,10.19857,7.72344,20.02121,15.82291,26.8637,26.92033,5.22646,8.47642,4.33967,17.94627,4.6259,27.23156.0403,1.30767-1.05674,1.90568-2.06539,2.48653Q105.162,183.771,89.07792,193.074C86.36772,194.64893,85.42555,193.78064,85.52768,190.88454Zm159.40724-60.77081c-5.18653,6.42017-6.418,14.40113-6.44745,22.53474a144.7125,144.7125,0,0,1-1.5888,23.05589c-1.56227,9.48344-5.7492,17.20456-14.76872,21.609-.3404.16624-.66392.36722-.99319.55567-7.24329,4.14653-14.05424,9.94986-21.84878,11.98245-8.06487,2.10314-17.08429.57965-25.68618.58507q-39.66477.0252-79.32961.00613-.07624-.32367-.1526-.64723,14.74725-8.51945,29.48563-17.05423c1.64325-.95628,2.587-.68526,3.705.94176,6.16553,8.97322,13.6521,10.63684,23.17941,5.258,4.95689-2.79851,9.83586-5.736,14.8132-8.49674,1.72938-.95919,2.46928-1.73476,1.17061-3.73168-2.20258-3.38683-4.20818-6.91476-6.08831-10.49278-.98044-1.86579-1.87785-1.77256-3.4788-.80418-4.54367,2.74827-9.157,5.38532-13.80215,7.95925-1.23183.68261-2.41858,2.38737-3.97529,1.40057-1.5457-.97983-.62946-2.75022-.5359-4.21954.57913-9.09711.746-18.19116-.56569-27.24621-1.751-12.08807-8.46185-21.48212-16.59337-30.02909A160.70762,160.70762,0,0,0,89.84147,97.99124c-.98076-.61323-2.76738-.92177-2.39883-2.49461.26675-1.13837,1.81232-1.11477,2.8885-1.40113,5.4869-1.46023,10.931-3.11637,16.47393-4.31681,2.95264-.63943,2.80644-1.71895,1.4837-3.78331a60.74,60.74,0,0,1-3.56388-6.25691,8.48305,8.48305,0,0,1,14.67855-8.4651c2.14739,3.27463,4.06425,6.70993,5.92319,10.16026,1.04259,1.93514,2.25077,2.60569,4.61379,2.8794,15.69345,1.81756,30.72312,5.935,44.496,13.982,14.77976,8.63514,18.80783,21.98009,16.60126,37.97916-.68855,4.99256-1.75851,9.93609-2.75649,14.88138-.91745,4.54608-2.58895,8.28022-7.31439,10.61179-7.1623,3.534-6.98766,3.88781-2.96562,10.80619,4.60192,7.91583,4.601,7.91435,12.63116,3.19531,1.41774-.83308,2.80825-1.724,4.27682-2.457,5.46019-2.72536,9.11178-7.06174,10.057-13.01057,1.34353-8.45578,5.88371-14.6722,11.86237-20.447,7.9984-7.72567,15.59679-15.874,23.18484-24.01064,2.35351-2.5236,3.21132-1.74789,5.00142.63688C248.57959,121.2297,248.93071,125.16746,244.93492,130.11373Z" transform="translate(0.01449)"/></svg>